<svg id="Layer_1" data-name="Layer 1" xmlns="http://www.w3.org/2000/svg" viewBox="0 0 980.01 965.55"><path d="M323.58,59.54c-1.72,1.34-12.26,18.39-23.56,37.93s-22.22,37.35-24.33,39.65c-7.66,8.24-11.88,7.47-57.85-8.81C180.49,114.9,174,113.18,170,114.9c-2.68,1.34-5.36,3.64-5.94,5.36-.77,1.72-4.6,22-8.81,45.21s-9,44.06-10.54,46.55a17.13,17.13,0,0,1-7.66,6.13c-2.68,1.15-24.33,1.92-47.89,1.92-25.86,0-44.63.77-46.74,1.92-7.85,4.21-7.85,7.28.19,53.64,8.24,48.08,8.24,52.49-1,58.42-2.3,1.34-21.26,8.81-42.33,16.47-38.68,14-46.92,18.38-46.92,25.28,0,2.3,10,21.26,22,42.33C-1.48,460.27.43,466.4-8,475.4c-2.3,2.68-18.2,16.47-35.25,30.84S-74.85,534-75.43,536.13a13,13,0,0,0,0,7.66c.58,2.11,15.14,15.52,32.19,29.88S-10.3,601.83-8,604.52c8.43,9,6.51,15.13-17.62,57.27-12.07,21.07-22,40-22,42.33,0,6.71,8,11.11,42.14,23.56,48.08,17.43,49.42,18,52.87,25.29,2.87,6.13,2.49,8.81-4.79,51.14-8,46.55-8,49.61-.19,53.83,2.11,1.15,20.88,1.91,46.74,1.91,23.56,0,45.21.77,47.89,1.92a17.13,17.13,0,0,1,7.66,6.13c1.53,2.49,6.32,23.75,10.73,47.51,8.24,45.4,10.15,50.38,19.54,50.19,2.3,0,22.8-6.51,45-14.75,43.67-15.71,48.08-16.28,55.74-8.05,2.11,2.3,13.6,20.88,25.29,41.19,22.41,38.69,25.48,41.76,35.05,37.16,2.3-1,18.77-14.18,36.59-28.93,32.18-27,37.54-30.27,45.78-28.16,2.3.57,19.73,14,38.7,29.69,33.14,27.78,38.12,30.65,45.78,27.78,1.53-.58,12.26-17,23.37-36.59,11.3-19.54,22.6-37.93,25.09-40.8,8-9.77,12.07-9.39,55.55,6.32C658.62,969,654,968.09,660,962.91c4.41-4,5.55-8.43,12.45-46.93,4.21-23.56,8.62-44.25,9.77-46.36,4.79-9.38,7.47-9.77,55.74-9.77,41.57,0,45.78-.38,49.8-3.64,5.75-4.6,5.56-7.09-3.06-56.51-7.47-43.1-7.28-48.08,1.72-53.83,2.3-1.34,21.26-8.81,42.33-16.47,38.89-14,46.93-18.39,46.93-25.48,0-2.3-10-21.26-22-42.33-24.14-42-26.05-48.08-17.62-57.08,2.3-2.68,18.2-16.48,35.25-30.84s31.61-27.77,32.18-29.88a13,13,0,0,0,0-7.66c-.57-2.11-15.13-15.52-32.18-29.88S838.3,478.09,836,475.4c-8.43-9-6.51-14.94,17.62-57.27,12.07-21.26,22-40.23,22-42.33,0-6.7-8-11.3-42.14-23.56-48.27-17.43-49.42-18-52.87-25.48-2.87-6.13-2.68-8.43,4-46.55,8.62-49.23,8.81-51.91,3.06-56.51-4-3.26-8.24-3.64-48.08-3.64-24.14,0-46-.77-48.66-1.92a19.21,19.21,0,0,1-7.85-6.32c-1.53-2.49-6.32-23.94-10.54-47.51C665.5,125.42,664.35,121,660,117c-5.75-5.17-1-6.13-53.25,12.45-42.52,15.13-46.93,15.71-54.4,7.66-2.11-2.3-13-20.11-24.33-39.65s-22-36.59-23.56-37.93c-7.09-5.56-12.26-2.68-47.31,26.63-19,15.71-36.4,29.12-38.7,29.69a17.09,17.09,0,0,1-8.81,0c-2.49-.58-19.92-14-38.69-29.88C335.85,56.86,330.88,54,323.58,59.54Z" transform="translate(76.01 -57.22)"/></svg>